<?xml version="1.0" standalone="no"?>
<!DOCTYPE svg PUBLIC "-//W3C//DTD SVG 1.1//EN" "http://www.w3.org/Graphics/SVG/1.1/DTD/svg11.dtd" >
<svg xmlns="http://www.w3.org/2000/svg">
<metadata>Generated by IcoMoon</metadata>
<defs>
<font id="icomoon" horiz-adv-x="1024">
<font-face units-per-em="1024" ascent="960" descent="-64" />
<missing-glyph horiz-adv-x="1024" />
<glyph unicode="&#x20;" horiz-adv-x="512" d="" />
<glyph unicode="&#xe900;" glyph-name="icon_setting" d="M565.12 8h-94.4c-14.528 0-19.136 0-67.584 120.064l-37.376 14.528c-101.44-46.272-113.92-46.272-118.016-46.272h-8l-6.656 5.696-66.944 65.472c-10.176 10.112-13.824 13.568 38.656 132.032l-15.232 36.096c-122.88 44.992-122.88 50.048-122.88 64.512v92.672c0 14.528 0 19.136 122.688 66.56l15.040 36.096c-55.36 115.968-51.584 120.32-40.704 130.496l72.448 70.592h8.96c10.88 0 51.136-14.528 120-43.52l37.312 14.528c44.928 120.448 50.432 120.448 64.64 120.448h94.528c14.528 0 19.136 0 67.52-120l37.44-14.528c101.44 46.272 113.92 46.272 118.016 46.272h6.976l6.656-5.632 66.944-65.344c10.176-10.304 13.632-14.528-38.656-132.224l15.36-36.224c123.2-43.52 123.2-49.024 123.2-63.488v-92.672c0-14.528 0-19.136-122.752-66.56l-14.528-36.224c55.104-115.968 51.456-119.808 41.152-130.496l-72.512-71.040h-8.96c-10.88 0-51.072 14.528-119.808 43.52l-37.504-14.528c-45.44-120.832-50.56-120.832-65.024-120.832zM480.448 46.272h74.56c8.512 17.408 26.944 63.68 41.856 103.552l3.008 8 67.84 27.392 7.872-3.2c39.872-17.088 86.976-36.352 106.304-42.176l52.288 51.2c-6.656 18.432-26.816 63.488-44.928 101.504l-3.648 7.68 28.032 67.712 7.68 2.88c40.896 15.68 88.128 35.072 105.856 43.52v72.32c-17.856 7.872-64.96 26.112-105.728 40.576l-8 2.944-28.096 66.688 3.328 7.552c17.408 39.296 36.672 85.504 43.52 104.064l-53.12 50.752c-16.96-5.952-64.32-26.304-104.384-44.544l-7.424-3.456-67.84 27.392-3.008 7.616c-16.064 40-35.968 86.976-44.928 103.68h-74.688c-8.576-17.472-26.944-63.68-41.792-103.36l-2.88-7.872-67.648-27.584-7.872 3.776c-40.576 17.28-88.448 36.288-107.136 42.24l-52.288-51.392c6.464-18.368 26.816-63.488 44.864-101.44l3.776-7.68-28.224-67.008-7.552-2.88c-40.704-15.68-88-35.072-105.728-43.52v-72.448c17.856-8.448 65.024-26.432 105.6-40.896l7.808-2.88 28.288-66.816-3.328-7.552c-17.344-39.104-36.672-85.376-43.52-104.064l52.672-51.456c16.96 5.952 64.192 26.24 104.384 44.672l7.552 3.52 67.712-27.584 4.032-7.232c16.064-40.704 35.904-87.104 44.928-104.192zM516.096 294.336c-85.12 1.536-152.896 71.744-151.296 156.8 1.472 85.12 71.744 152.832 156.8 151.296 84.032-1.472 151.36-70.016 151.36-154.048-0.96-85.76-71.040-154.624-156.864-154.048zM516.096 564.288c-64-1.536-114.688-54.656-113.216-118.72s54.656-114.752 118.72-113.216c62.976 1.472 113.216 52.928 113.28 115.904-0.832 64.832-53.952 116.736-118.784 116.032v0z" />
<glyph unicode="&#xe901;" glyph-name="icon_virtual-terminal" d="M512 34.432c-13.632 0-27.328 3.968-39.232 11.968l-28.736 19.136c-6.208 4.16-14.272 4.16-20.544 0l-28.736-19.136c-23.808-15.872-54.656-15.936-78.464 0l-28.736 19.136c-6.208 4.16-14.336 4.16-20.608 0l-35.776-23.936c-11.584-7.744-26.304-8.384-38.464-1.856s-19.776 19.136-19.776 32.96v750.592c0 13.824 7.552 26.496 19.776 33.024 12.224 6.464 26.944 5.76 38.528-1.92l35.776-23.872c6.272-4.16 14.336-4.16 20.608 0l28.672 19.2c23.872 15.872 54.656 15.872 78.528 0l28.736-19.2c6.208-4.16 14.272-4.16 20.544 0l28.736 19.2c23.808 15.872 54.656 15.872 78.464 0l28.736-19.2c6.272-4.16 14.336-4.16 20.608 0l28.736 19.136c23.808 15.872 54.656 15.872 78.4 0l28.8-19.136c6.272-4.16 14.4-4.16 20.608 0l35.84 23.872c11.456 7.68 26.176 8.384 38.4 1.856 12.096-6.464 19.648-19.072 19.648-32.96v-750.528c0-13.824-7.552-26.496-19.776-33.024-12.16-6.528-26.88-5.76-38.336 1.92l-35.968 23.872c-6.272 4.16-14.336 4.096-20.608 0l-28.672-19.136c-23.872-15.936-54.592-15.936-78.4 0l-28.8 19.136c-6.208 4.16-14.4 4.096-20.608 0l-28.672-19.136c-11.904-7.936-25.536-11.968-39.232-11.968v0zM433.792 120.832c13.568 0 27.264-3.968 39.168-11.904l28.736-19.136c6.272-4.16 14.336-4.16 20.608 0l28.736 19.136c23.808 15.872 54.656 15.872 78.464 0l28.736-19.136c6.272-4.16 14.336-4.096 20.544 0l28.736 19.136c23.872 15.872 54.656 15.872 78.4 0l12.928-8.64v695.424l-12.928-8.64c-23.808-15.872-54.656-15.872-78.4 0l-28.736 19.136c-6.272 4.16-14.336 4.16-20.608 0l-28.736-19.072c-23.808-15.872-54.656-15.872-78.464 0l-28.736 19.2c-6.208 4.096-14.336 4.096-20.608 0l-28.736-19.2c-23.872-15.872-54.656-15.872-78.464 0l-28.736 19.2c-6.208 4.096-14.336 4.096-20.608 0l-28.672-19.2c-23.808-15.872-54.656-15.872-78.464 0l-12.8 8.576v-695.424l12.928 8.64c23.872 15.872 54.656 15.872 78.464 0l28.736-19.136c6.272-4.16 14.336-4.16 20.608 0l28.736 19.136c11.84 7.936 25.536 11.904 39.168 11.904zM668.48 578.432h-312.96c-14.4 0-26.112 11.712-26.112 26.048 0 14.464 11.712 26.112 26.112 26.112h312.96c14.4 0 26.048-11.648 26.048-26.112 0.064-14.4-11.648-26.048-26.048-26.048zM668.48 474.112h-312.96c-14.4 0-26.112 11.712-26.112 26.048 0 14.464 11.712 26.112 26.112 26.112h312.96c14.4 0 26.048-11.648 26.048-26.112 0.064-14.4-11.648-26.048-26.048-26.048zM668.48 369.728h-312.96c-14.4 0-26.112 11.648-26.112 26.048 0 14.464 11.712 26.112 26.112 26.112h312.96c14.4 0 26.048-11.648 26.048-26.112 0.064-14.4-11.648-26.048-26.048-26.048zM668.48 265.408h-111.744c-14.464 0-26.112 11.648-26.112 26.112 0 14.4 11.648 26.048 26.112 26.048h111.808c14.4 0 26.048-11.648 26.048-26.048 0-14.464-11.712-26.112-26.112-26.112z" />
<glyph unicode="&#xe902;" glyph-name="icon_transactions" d="M281.344 26.56c-5.056 0-11.584 3.008-14.848 6.144l-182.528 171.712c-8.256 8.064-9.216 21.056-0.832 30.464 7.552 8.384 22.208 8.576 30.4 0.832l146.304-137.92v702.080c0 11.84 9.6 21.44 21.504 21.44 11.84 0 21.376-9.6 21.376-21.44v-702.144l146.368 137.92c8.192 7.744 22.528 7.232 30.4-0.832 8.32-8.448 7.552-22.528-0.896-30.464l-182.528-171.712c-4.992-5.056-9.728-5.952-14.72-6.080v0zM689.408 821.312c5.056 0 11.584-3.008 14.848-6.080l182.592-171.776c8.256-8 9.152-21.056 0.768-30.464-7.552-8.32-22.272-8.512-30.4-0.768l-146.304 137.856v-702.080c0-11.84-9.6-21.44-21.504-21.44-11.84 0-21.44 9.6-21.44 21.44v702.144l-146.304-137.92c-8.192-7.744-22.528-7.232-30.4 0.768-8.384 8.512-7.552 22.528 0.832 30.464l182.592 171.776c4.992 5.056 9.728 6.016 14.72 6.080v0z" />
<glyph unicode="&#xe903;" glyph-name="icon_add" d="M507.264 867.020c-34.304 0-62.016-27.776-62.016-62.080v-294.848h-294.976c-34.24 0-62.016-27.776-62.016-62.080s27.776-62.016 62.016-62.016h294.912v-294.912c0-34.24 27.776-62.016 62.016-62.016 34.304 0 62.080 27.776 62.080 62.016v294.912h294.848c34.304 0 62.080 27.776 62.080 62.016 0 34.304-27.776 62.080-62.080 62.080h-294.784v294.848c0 34.304-27.776 62.080-62.080 62.080z" />
<glyph unicode="&#xe904;" glyph-name="icon_arrow_down" d="M848.128 687.616c25.28 25.344 66.304 25.344 91.712 0v0c25.28-25.28 25.28-66.368 0-91.648v0l-382.016-382.016c-25.344-25.344-66.368-25.28-91.712 0.064v0c-25.344 25.28-25.344 66.368 0 91.648v0l382.016 381.952zM84.096 595.968c-25.344 25.344-25.344 66.304 0 91.712v0c25.408 25.28 66.432 25.28 91.712-0.064v0l382.016-381.952c25.344-25.344 25.344-66.432 0.064-91.712v0c-25.344-25.344-66.432-25.344-91.776 0v0l-382.016 382.016z" />
<glyph unicode="&#xe905;" glyph-name="icon_card" d="M852.48 709.888h-648.96c-59.712 0-108.864-48.128-108.864-107.84v-366.912c0-59.712 49.152-108.8 108.864-108.8h648.96c59.712 0 108.864 49.152 108.864 108.8v366.912c0 59.648-49.152 107.84-108.864 107.84zM203.52 674.24h648.96c39.488 0 72.256-32.704 72.256-72.192h-793.472c0 39.424 31.744 72.192 72.256 72.192zM924.736 234.176c0-39.488-32.768-72.192-72.256-72.192h-648.96c-39.488 0-72.256 32.704-72.256 72.192v183.936h794.432v-183.936h-0.96z" />
<glyph unicode="&#xe906;" glyph-name="icon_close" d="M145.28 835.084c-12.48-1.216-21.632-12.352-20.416-24.896 0.512-5.312 3.008-10.496 6.912-14.272l348.16-348.16-348.16-347.84c-9.088-8.704-9.472-23.104-0.832-32.192 8.704-9.152 23.040-9.472 32.192-0.832 0.192 0.256 0.448 0.384 0.64 0.64l348.224 348.288 348.16-348.224c8.768-9.024 23.168-9.216 32.128-0.448 9.024 8.768 9.28 23.232 0.448 32.256-0.192 0.128-0.384 0.32-0.576 0.576l-348.16 347.776 348.224 348.16c9.088 8.64 9.536 22.976 0.96 32.192-5.056 5.376-12.48 8-19.84 6.912-4.992-0.704-9.6-3.072-13.12-6.72l-348.224-348.16-348.16 348.16c-4.864 4.992-11.648 7.424-18.56 6.784z" />
<glyph unicode="&#xe907;" glyph-name="icon_coins" d="M291.776 870.336c-115.712 0-206.464-48.384-206.464-110.016v-577.984c0-61.824 90.688-110.016 206.464-110.016s206.464 48.32 206.464 110.016v577.92c0 61.632-90.752 110.080-206.464 110.080zM470.656 182.144c0-39.808-71.872-82.688-178.88-82.688s-178.816 42.88-178.816 82.688v27.072c35.2-32.96 101.376-54.656 178.816-54.656s143.616 21.696 178.88 54.656v-27.072zM470.656 264.768c0-39.808-71.872-82.624-178.88-82.624s-178.816 42.816-178.816 82.624v27.072c35.2-32.96 101.376-54.592 178.816-54.592s143.616 21.632 178.88 54.592v-27.072zM470.656 347.456c0-39.872-71.872-82.688-178.88-82.688s-178.816 42.688-178.816 82.688v27.008c35.2-32.96 101.376-54.656 178.816-54.656s143.616 21.696 178.88 54.656v-27.008zM470.656 429.888c0-39.808-71.872-82.624-178.88-82.624s-178.816 42.816-178.816 82.624v27.072c35.2-32.768 101.376-54.656 178.816-54.656s143.616 21.696 178.88 54.656v-27.072zM470.656 512.576c0-39.808-71.872-82.688-178.88-82.688s-178.816 42.688-178.816 82.688v27.008c35.2-32.96 101.376-54.656 178.816-54.656s143.616 21.696 178.88 54.656v-27.008zM470.656 595.008c0-39.808-71.872-82.688-178.88-82.688s-178.816 42.88-178.816 82.688v27.072c35.2-32.896 101.376-54.592 178.816-54.592s143.616 21.696 178.88 54.592v-27.072zM470.656 677.632c0-39.808-71.872-82.624-178.88-82.624s-178.816 42.816-178.816 82.624v27.072c35.2-32.96 101.376-54.592 178.816-54.592s143.616 21.632 178.88 54.592v-27.072zM291.776 677.632c-107.008 0-178.816 42.688-178.816 82.688 0 39.808 71.872 82.688 178.816 82.688 107.008 0 178.88-42.688 178.88-82.688s-71.872-82.688-178.88-82.688zM732.224 540.096c-115.776 0-206.464-48.384-206.464-110.080v-247.744c0-61.824 90.688-110.016 206.464-110.016 115.712 0 206.464 48.192 206.464 109.888v247.744c0 61.824-90.752 110.208-206.464 110.208zM911.104 182.144c0-39.808-71.936-82.688-178.88-82.688s-178.816 42.688-178.816 82.688v27.072c35.2-32.96 101.44-54.656 178.816-54.656 77.44 0 143.616 21.696 178.88 54.656v-27.072zM911.104 264.768c0-39.808-71.936-82.624-178.88-82.624s-178.816 42.688-178.816 82.624v27.072c35.2-32.96 101.44-54.592 178.816-54.592 77.44 0 143.616 21.632 178.88 54.592v-27.072zM911.104 347.456c0-39.872-71.936-82.688-178.88-82.688s-178.816 42.688-178.816 82.688v27.008c35.2-32.96 101.44-54.656 178.816-54.656 77.44 0 143.616 21.696 178.88 54.656v-27.008zM732.224 347.456c-107.008 0-178.816 42.624-178.816 82.56 0 39.808 71.872 82.688 178.816 82.688s178.88-42.688 178.88-82.688c0-39.936-71.872-82.56-178.88-82.56z" />
<glyph unicode="&#xe908;" glyph-name="icon_friends" d="M958.848 224.256c0-8.512-3.264-16.64-9.344-22.72-6.144-6.144-14.336-9.536-23.040-9.536l-75.776 0.384 0.384-75.584c0.064-8.768-3.328-17.024-9.408-23.168-6.080-6.016-14.144-9.408-22.656-9.408h-0.064c-17.728 0.064-32.192 14.72-32.32 32.512l-0.32 75.968-78.336 0.384c-17.792 0.128-32.384 14.528-32.512 32.192 0 8.576 3.264 16.64 9.344 22.72 6.080 6.144 14.272 9.472 23.040 9.472l78.080-0.32-0.384 77.952c0 8.768 3.392 17.024 9.472 23.104 6.016 6.080 14.080 9.408 22.656 9.408 17.792-0.064 32.256-14.656 32.32-32.512l0.448-78.272 75.84-0.448c17.856 0 32.448-14.464 32.576-32.128zM769.664 604.8c0 96.896-78.848 175.744-175.744 175.744s-175.744-78.848-175.744-175.744c0-64.896 35.328-121.664 87.808-152.064-34.88-12.096-66.432-31.296-93.184-55.68-16 15.744-34.624 29.056-55.232 39.040 30.592 25.664 49.984 64.064 49.984 107.008 0 77.056-62.656 139.776-139.712 139.776s-139.712-62.72-139.712-139.776c0-42.88 19.392-81.344 49.92-107.008-69.248-33.472-117.312-104.64-117.312-186.688 0-25.28 20.544-45.824 45.824-45.824h218.56c0-1.728-0.192-3.456-0.192-5.184 0-25.28 20.544-45.824 45.824-45.824h279.488c-14.656 11.648-25.792 27.584-31.488 45.824h-248c0 1.728 0.064 3.456 0.128 5.184 0.384 15.744 2.368 31.040 5.76 45.824 6.464 27.52 17.984 53.184 33.6 75.712 9.216 13.312 19.84 25.536 31.552 36.48 39.936 37.248 93.376 59.968 152.128 59.968 52.48 0 100.736-18.24 138.88-48.576 4.544 10.304 10.88 19.776 19.072 28.032 2.816 2.88 5.888 5.44 9.024 7.872-23.552 18.752-50.176 33.728-79.104 43.84 52.608 30.4 87.872 87.168 87.872 152.064zM174.016 543.104c0 51.904 42.048 93.952 93.888 93.952s93.888-42.048 93.888-93.952c0-51.84-42.048-93.888-93.888-93.888s-93.888 42.048-93.888 93.888zM329.984 249.408h-223.36c0 89.088 72.192 161.28 161.28 161.28 44.48 0 84.8-18.048 113.984-47.168-25.6-32.832-43.712-71.68-51.904-114.112zM593.984 480.768c-68.48 0-124.096 55.488-124.096 124.032 0 68.48 55.616 124.032 124.096 124.032 68.544 0 124.032-55.552 124.032-124.032 0-68.544-55.488-124.032-124.032-124.032z" />
<glyph unicode="&#xe909;" glyph-name="icon_info" d="M512 659.904c-29.248 0-52.992-23.744-52.992-52.992s23.744-52.992 52.992-52.992 52.992 23.68 52.992 52.992c0 29.248-23.744 52.992-52.992 52.992zM512 500.992c-29.248 0-52.992-23.68-52.992-52.992v-158.912c0-29.248 23.744-52.992 52.992-52.992s52.992 23.744 52.992 52.992v158.912c0 29.248-23.744 52.992-52.992 52.992zM512 871.744c-233.664 0-423.744-190.080-423.744-423.744s190.080-423.744 423.744-423.744 423.744 190.080 423.744 423.744-190.080 423.744-423.744 423.744zM512 103.744c-189.824 0-344.256 154.496-344.256 344.256s154.432 344.256 344.256 344.256c189.824 0 344.256-154.496 344.256-344.256s-154.432-344.256-344.256-344.256z" />
<glyph unicode="&#xe90a;" glyph-name="icon_logout" d="M499.328 131.328h-195.712c-53.184 0-96.32 43.264-96.32 96.32v471.616c0 53.184 43.328 96.32 96.32 96.32h198.848c11.968 0 21.504 9.536 21.504 21.504s-9.536 21.504-21.504 21.504h-198.848c-76.928 0-139.328-62.592-139.328-139.328v-471.616c0-76.928 62.592-139.328 139.328-139.328h195.712c11.968 0 21.44 9.536 21.44 21.44 0 11.968-9.664 21.568-21.44 21.568zM853.44 478.592l-136.64 136.576c-8.448 8.384-22.016 8.384-30.464 0-8.448-8.448-8.448-22.016 0-30.4l99.968-100.032h-436.032c-11.968 0-21.504-9.536-21.504-21.44 0-11.968 9.536-21.504 21.504-21.504h436.032l-99.904-100.032c-8.448-8.448-8.448-21.952 0-30.464 4.16-4.096 9.728-6.336 15.104-6.336s11.008 2.112 15.104 6.336l136.704 136.704c8.512 8.576 8.512 22.272 0.128 30.592z" />
<glyph unicode="&#xe90b;" glyph-name="icon_message_declined" d="M512 24.448c-235.072 0-426.368 191.296-426.368 426.368s191.296 426.368 426.368 426.368 426.368-191.296 426.368-426.368-191.296-426.368-426.368-426.368zM512 806.144c-195.904 0-355.264-159.424-355.264-355.328s159.36-355.264 355.264-355.264 355.328 159.36 355.328 355.264-159.424 355.328-355.328 355.328zM654.080 273.152c-9.088 0-18.176 3.456-25.152 10.432l-284.16 284.224c-13.888 13.888-13.888 36.288 0 50.24 13.952 13.888 36.352 13.888 50.24 0l284.224-284.224c13.888-13.888 13.888-36.352 0-50.24-6.976-6.976-16.064-10.432-25.152-10.432zM654.080 273.152c-9.088 0-18.176 3.456-25.152 10.432l-284.16 284.224c-13.888 13.888-13.888 36.288 0 50.24 13.952 13.888 36.352 13.888 50.24 0l284.224-284.224c13.888-13.888 13.888-36.352 0-50.24-6.976-6.976-16.064-10.432-25.152-10.432zM369.856 273.152c-9.088 0-18.176 3.456-25.152 10.432-13.888 13.888-13.888 36.352 0 50.24l284.224 284.224c13.888 13.888 36.352 13.888 50.24 0 13.888-13.952 13.888-36.352 0-50.24l-284.224-284.224c-6.848-6.976-16-10.432-25.088-10.432v0z" />
<glyph unicode="&#xe90c;" glyph-name="icon_ok" d="M915.648 753.472c-20.8 22.336-47.488 34.56-71.296 34.624-14.080 0-27.328-4.352-37.312-13.696l-261.952-244.288c-2.624-2.496-4.48-5.184-6.208-7.616l-144.96-134.976-170.688 183.168c-10.496 11.2-25.344 16.512-41.344 16.512-22.592 0-47.744-10.304-68.544-29.696-22.4-20.864-34.624-47.488-34.688-71.296 0-14.144 4.416-27.328 13.824-37.376l244.224-262.016c10.368-11.136 25.024-16.32 40.96-16.32 7.040 0 14.208 1.024 21.504 2.88 1.344 0 2.752-0.064 4.096-0.064 14.080-0.064 27.264 4.096 37.376 13.44l261.952 244.224c2.56 2.496 4.48 5.184 6.208 7.68l219.968 205.056c11.2 10.432 16.512 25.28 16.512 41.28 0.064 22.528-10.24 47.616-29.632 68.48z" />
<glyph unicode="&#xe90d;" glyph-name="icon_panel" d="M897.152 773.312c-39.168 0-70.336-31.104-70.336-70.272 0-18.048 6.976-35.136 18.112-47.232l-172.736-299.264c-8 3.072-17.088 5.056-26.112 5.056-18.048 0-34.176-6.976-47.232-18.048l-185.728 120.448c0.96 6.080 1.984 12.096 1.984 18.112 0 39.168-31.104 70.336-70.272 70.336s-70.336-31.168-70.336-70.336c0-16.064 6.016-31.104 15.040-43.136l-136.576-230.976c-6.016 2.048-12.032 3.008-19.136 3.008-39.104 0-70.272-31.104-70.272-70.272s31.168-70.336 70.336-70.336c39.168 0 70.336 31.104 70.336 70.272 0 18.112-6.976 34.112-17.024 46.208l135.552 228.992c7.040-2.048 15.104-4.096 22.144-4.096 18.048 0 34.112 7.040 47.168 18.112l185.792-121.536c-1.024-4.992-1.984-11.008-1.984-17.088 0-39.168 31.104-70.272 70.272-70.272s70.336 31.104 70.336 70.272c0 15.040-5.056 29.184-13.12 40.192l175.808 303.232c6.016-1.024 11.008-1.984 17.088-1.984 39.168 0 70.272 31.104 70.272 70.336-0.064 39.168-30.208 70.272-69.376 70.272zM133.888 110.528c-17.024 0-30.080 13.056-30.080 30.144s13.056 30.144 30.080 30.144c17.152 0 30.144-13.056 30.144-30.144s-13.056-30.144-30.144-30.144zM344.832 451.968c-17.088 0-30.144 13.056-30.144 30.080 0 17.088 13.056 30.144 30.144 30.144s30.144-13.056 30.144-30.144c-0.064-16.96-13.12-30.080-30.144-30.080zM646.080 261.184c-17.088 0-30.144 13.056-30.144 30.080 0 17.088 13.056 30.144 30.144 30.144s30.080-13.056 30.080-30.144c0-17.024-12.992-30.080-30.080-30.080zM897.152 672.96c-17.088 0-30.144 13.056-30.144 30.144s13.056 30.144 30.144 30.144 30.080-13.056 30.080-30.144-12.992-30.144-30.080-30.144z" />
<glyph unicode="&#xe90e;" glyph-name="icon_pin_map" d="M539.2 879.808c-188.032 0-341.824-148.096-341.824-330.496 0-72.192 24.704-140.544 68.352-197.504l258.368-338.048c5.632-7.616 18.944-9.472 26.56-3.776 1.92 1.92 1.92 1.92 3.776 3.776l258.368 338.048c43.648 56.96 68.352 125.312 68.352 197.504-0.064 182.336-153.92 330.496-341.952 330.496zM512.64 420.16c-72.192 15.232-119.68 83.584-104.448 155.776 15.168 72.192 83.52 119.68 155.712 104.448 53.184-11.392 94.912-51.264 104.448-104.448 13.312-72.128-34.176-142.464-104.448-155.712-17.088-3.84-34.176-3.84-51.264-0.064z" />
<glyph unicode="&#xe90f;" glyph-name="icon_question" d="M616.64 119.936c0 50.176-40.128 90.304-90.368 90.304-50.112 0-90.304-40.128-90.304-90.304s40.192-90.304 90.304-90.304c50.24 0 90.368 40.128 90.368 90.304zM705.28 810.752c-46.784 38.528-107.008 58.56-167.232 55.232-63.552 1.664-123.776-18.432-172.288-58.56-46.848-40.128-75.264-98.688-80.32-160.576h140.48c1.664 26.752 13.376 53.44 33.472 71.936 20.032 18.432 46.848 28.416 73.6 26.752 26.752 0 53.504-10.048 71.936-28.48 18.432-18.368 28.416-43.456 28.416-70.208 0-26.816-8.384-51.904-26.752-72l-83.584-83.584c-20.096-18.368-35.136-38.4-48.512-60.224-10.048-23.36-13.376-46.784-11.712-70.208v-70.272h130.496v51.84c-1.728 25.088 4.992 51.84 20.032 71.936 4.992 6.656 13.376 15.040 21.76 23.424 8.32 10.048 18.368 20.032 31.808 31.808 11.712 13.312 21.76 21.696 30.080 30.080 11.776 11.712 23.424 25.088 33.472 38.464 25.088 31.808 38.528 73.6 40.128 115.392 0 66.944-21.76 120.448-65.28 157.248z" />
<glyph unicode="&#xe910;" glyph-name="icon_receive" d="M515.072 866.764c-14.272-0.128-25.728-11.84-25.536-26.112v-547.52l-272.448 272.704c-4.864 4.992-11.584 7.808-18.624 7.808-14.208 0-25.856-11.52-25.856-25.792 0-6.976 2.816-13.696 7.872-18.624l316.544-316.544c10.112-10.112 26.496-10.112 36.608-0.064 0 0 0 0 0 0.064l316.544 316.544c10.752 9.408 11.84 25.728 2.496 36.48-9.344 10.688-25.728 11.84-36.48 2.432-0.832-0.704-1.6-1.472-2.368-2.304l-272.704-272.704v547.52c0.192 14.272-11.264 25.984-25.536 26.112-0.128 0-0.256 0-0.512 0v0zM207.424 160.78c-14.272-0.768-25.28-12.928-24.448-27.2 0.704-14.272 12.928-25.28 27.2-24.512h610.752c14.272-0.192 25.984 11.136 26.176 25.472 0.192 14.272-11.2 25.984-25.472 26.176-0.192 0-0.448 0-0.704 0h-610.752c-0.896 0.064-1.856 0.064-2.752 0.064v0z" />
<glyph unicode="&#xe911;" glyph-name="icon_send_plane-copy" d="M512 890.048c-234.752 0-425.792-190.976-425.792-425.792 0-234.752 190.976-425.728 425.792-425.728s425.728 190.976 425.728 425.728c0.064 234.816-190.912 425.792-425.728 425.792zM512 116.48c-191.744 0-347.776 156.032-347.776 347.776s156.032 347.776 347.776 347.776 347.776-156.032 347.776-347.84c0.064-191.68-155.968-347.712-347.776-347.712zM635.072 577.472c-57.408-57.984-114.816-116.096-172.224-174.080-26.752 26.24-53.568 52.48-80.384 78.72-35.904 35.2-91.072-19.904-55.104-55.104 36.032-35.392 72.192-70.784 108.352-106.176 15.104-14.784 40.064-15.232 55.104 0 66.432 67.2 132.928 134.336 199.36 201.472 35.456 35.776-19.712 90.944-55.104 55.168z" />
<glyph unicode="&#xe912;" glyph-name="icon_send_plane" d="M688 632l-298.176-245.696-286.208 63.104 816.768 415.040-219.136-770.304-268.928 265.664zM428.352 309.952l112.896-116.224-112.896-129.472z" />
<glyph unicode="&#xe913;" glyph-name="icon_user-09" d="M627.84 263.936c-21.504 3.456-22.016 62.592-22.016 62.592s63.296 62.656 77.12 146.88c37.12 0 59.968 89.536 22.848 121.024 1.536 33.152 47.68 260.288-185.856 260.288s-187.392-227.072-185.856-260.224c-37.12-31.552-14.208-121.088 22.848-121.088 13.824-84.224 77.12-146.88 77.12-146.88s-0.512-59.136-22.016-62.592c-69.376-11.008-328.32-125.312-328.32-250.56h872.512c-0.064 125.312-259.008 239.552-328.384 250.56z" />
<glyph unicode="&#xe914;" glyph-name="icon_user" d="M855.68 102.016c0 0-8.192 147.456-109.504 241.536-22.72 20.736-48.32 38.4-76.032 52.352-0.704 0.32-1.408 0.704-2.112 1.024-3.584 1.792-7.168 3.456-10.816 5.184-1.088 0.512-2.176 0.96-3.264 1.408-3.52 1.536-6.976 3.072-10.624 4.48-0.704 0.256-1.472 0.512-2.24 0.832-3.776 1.472-7.488 2.944-11.264 4.288 65.472 37.952 109.632 108.928 109.632 189.952 0 121.024-98.496 219.456-219.456 219.456 0 0 0 0-0.064 0s0 0 0 0c-121.088 0-219.456-98.432-219.456-219.456 0-81.088 44.096-152 109.632-189.952-3.84-1.344-7.552-2.816-11.328-4.288-0.704-0.32-1.472-0.576-2.24-0.832-3.52-1.408-7.104-2.88-10.56-4.48-1.152-0.512-2.176-0.896-3.328-1.408-3.648-1.728-7.232-3.392-10.752-5.184-0.768-0.32-1.408-0.704-2.112-1.024-27.712-13.952-53.312-31.616-76.032-52.352-101.376-94.080-109.568-241.536-109.568-241.536 0-2.112-0.256-4.288-0.256-6.4 0-31.616 25.6-57.28 57.216-57.28h557.504c31.68 0 57.28 25.6 57.28 57.28 0 2.112-0.256 4.288-0.256 6.4zM360.832 603.072c0 86.208 69.888 156.096 156.096 156.096 86.272 0 156.16-69.888 156.16-156.096 0-86.272-69.888-156.16-156.16-156.16-86.208 0-156.096 69.888-156.096 156.16zM550.912 95.616h-309.76c0 2.112 0.192 4.288 0.256 6.4 0.384 19.648 2.816 38.784 7.168 57.216 8 34.432 22.4 66.432 41.92 94.592 11.52 16.64 24.704 31.872 39.424 45.632 5.312 4.992 10.88 9.664 16.576 14.272 0 0 0 0 0 0 26.56 21.12 57.024 37.44 90.176 47.872 0.384 0.128 0.768 0.256 1.216 0.384 3.008 0.896 5.952 1.728 8.96 2.56 1.024 0.256 2.048 0.512 3.072 0.768 2.688 0.704 5.376 1.344 8.128 1.92 1.408 0.32 2.816 0.64 4.224 0.96 2.56 0.512 5.056 0.96 7.552 1.472 1.664 0.256 3.456 0.576 5.184 0.896 2.304 0.384 4.608 0.768 6.912 1.088 2.048 0.192 4.032 0.448 6.016 0.64 2.176 0.256 4.288 0.512 6.464 0.704 2.432 0.256 4.864 0.384 7.296 0.576 1.792 0.128 3.584 0.256 5.376 0.32 4.032 0.192 8 0.256 12.032 0.256 0.256 0 0.512 0 0.832 0 0.256 0 0.576 0 0.832 0 4.032 0 8-0.064 12.032-0.256 1.792-0.064 3.584-0.192 5.312-0.32 2.432-0.192 4.864-0.256 7.36-0.576 2.112-0.192 4.224-0.448 6.4-0.704 1.984-0.192 3.968-0.448 6.016-0.64 2.304-0.32 4.672-0.704 6.976-1.088 1.664-0.32 3.456-0.64 5.12-0.896 2.56-0.512 5.056-0.96 7.552-1.472 1.408-0.32 2.816-0.64 4.288-0.96 2.688-0.576 5.376-1.28 8.128-1.92 1.024-0.256 2.048-0.512 3.136-0.896 2.944-0.768 6.016-1.6 8.96-2.56 0.384-0.128 0.832-0.256 1.216-0.384 33.088-10.432 63.552-26.752 90.112-47.872 0 0 0 0 0 0 5.696-4.544 11.264-9.28 16.576-14.272 14.72-13.76 27.968-28.992 39.36-45.632 19.584-28.16 33.92-60.16 41.984-94.592 4.288-18.368 6.784-37.504 7.232-57.216 0.064-2.112 0.192-4.288 0.192-6.4h-247.808z" />
<glyph unicode="&#xe915;" glyph-name="icon_wallet" d="M188.032 786.124c-42.944 0-78.208-35.264-78.208-78.208v-491.584c0-43.008 35.264-78.272 78.208-78.272h703.936c12.288 0 22.336 10.048 22.336 22.4v491.648c0 12.288-10.048 22.336-22.336 22.336h-44.736v89.344c0 12.352-9.984 22.4-22.4 22.4h-636.8zM188.032 741.452h614.528v-67.072h-614.528c-17.408 0-31.040 12.48-33.152 28.992-0.128 0.704-0.192 1.344-0.384 2.048v2.496c0 18.944 14.592 33.536 33.536 33.536zM154.496 637.388c10.176-4.864 21.568-7.68 33.536-7.68h681.536v-145.28h-122.88c-42.944 0-78.208-35.2-78.208-78.208 0-42.88 35.264-78.208 78.208-78.208h122.88v-145.216h-681.536c-18.944 0-33.536 14.592-33.536 33.536v421.056zM746.688 439.756h122.88v-67.008h-122.88c-18.944 0-33.536 14.528-33.536 33.472 0 19.008 14.528 33.536 33.536 33.536z" />
<glyph unicode="&#xe916;" glyph-name="icon-receive_funds" d="M224.832 513.932l-91.904-404.032c-2.56-10.752 6.72-22.656 17.792-22.72h771.648c11.072 0 20.352 11.968 17.792 22.72l-91.904 404.032c-1.92 7.936-9.664 14.016-17.792 14.016h-128.576c-9.728 0.192-18.624-8.64-18.624-18.368s8.896-18.496 18.624-18.368h113.92l83.584-367.296h-725.632l83.584 367.296h113.856c9.728-0.064 18.624 8.704 18.624 18.368s-8.896 18.56-18.624 18.368h-128.576c-9.664-0.384-15.296-6.272-17.792-14.016v0zM536.64 197.388c-4.288 0-9.92 2.624-12.672 5.248l-156.096 146.816c-7.104 6.848-7.936 17.984-0.704 26.048 6.464 7.104 19.008 7.296 25.984 0.704l125.056-117.952v600.384c0 10.112 8.192 18.368 18.368 18.368 10.112 0 18.368-8.192 18.368-18.368v-600.384l125.12 117.952c6.976 6.656 19.264 6.208 25.984-0.704 7.104-7.232 6.464-19.264-0.704-26.048l-156.096-146.816c-4.288-4.352-8.32-5.184-12.608-5.248v0z" />
<glyph unicode="&#xe917;" glyph-name="icon-send_funds" d="M195.968 513.932l-91.904-404.032c-2.624-10.752 6.72-22.656 17.792-22.656h771.648c11.008 0 20.352 11.968 17.792 22.656l-91.904 404.032c-1.92 7.872-9.664 14.016-17.792 14.016h-128.64c-9.664 0.128-18.624-8.704-18.624-18.368s8.96-18.496 18.624-18.368h114.048l83.456-367.36h-725.568l83.52 367.36h113.984c9.664-0.128 18.624 8.64 18.624 18.368s-8.96 18.496-18.624 18.368h-128.64c-9.664-0.384-15.296-6.272-17.792-14.016v0zM507.712 876.94c4.224 0 9.92-2.624 12.608-5.248l156.096-146.88c7.040-6.848 7.872-17.984 0.64-25.984-6.4-7.168-18.88-7.36-25.92-0.704l-125.12 117.952v-600.384c0-10.176-8.192-18.368-18.368-18.368s-18.368 8.192-18.368 18.368v600.384l-125.184-117.952c-6.976-6.656-19.2-6.144-25.984 0.704-7.104 7.232-6.528 19.264 0.704 25.984l156.16 146.88c4.352 4.352 8.448 5.184 12.736 5.248v0z" />
<glyph unicode="&#xe918;" glyph-name="icon_cards" d="M882.688 807.68h-585.728c-30.272 0-54.912-24.64-54.912-54.912v-168.192h-84.544c-30.272 0-54.912-24.704-54.912-54.912v-362.56c0-30.272 24.64-54.912 54.912-54.912h585.728c30.272 0 54.848 24.64 54.848 54.912v168.192h84.608c30.208 0 54.848 24.64 54.848 54.848v362.624c0 30.208-24.64 54.912-54.848 54.912zM771.968 167.040c0-15.872-12.864-28.8-28.736-28.8h-585.728c-15.872 0-28.736 12.928-28.736 28.8v362.56c0 15.872 12.864 28.736 28.736 28.736h585.728c15.872 0 28.736-12.928 28.736-28.736v-362.56zM911.424 390.144c0-15.872-12.928-28.8-28.736-28.8h-84.608v168.256c0 30.272-24.64 54.912-54.848 54.912h-475.072v57.536h643.2v-251.904h0.064zM911.424 668.16h-643.264v57.6h643.2v-57.6h0.064zM911.424 751.936h-643.264v0.832c0 15.872 12.928 28.736 28.8 28.736h585.728c15.808 0 28.736-12.928 28.736-28.736v-0.832zM283.008 333.504h-83.712c-7.168 0-13.056-5.824-13.056-13.056s5.888-13.056 13.056-13.056h83.712c7.168 0 13.056 5.824 13.056 13.056s-5.824 13.056-13.056 13.056zM478.208 277.76h-27.84c-7.232 0-13.12-5.888-13.12-13.056 0-7.232 5.888-13.12 13.12-13.12h27.904c7.232 0 13.056 5.824 13.056 13.12-0.064 7.168-5.888 13.056-13.12 13.056zM561.92 277.76h-27.904c-7.232 0-13.12-5.888-13.12-13.056 0-7.232 5.824-13.12 13.12-13.12h27.904c7.232 0 13.12 5.824 13.12 13.12-0.064 7.168-5.888 13.056-13.12 13.056zM422.464 333.504h-83.712c-7.232 0-13.056-5.824-13.056-13.056s5.824-13.056 13.056-13.056h83.648c7.232 0 13.056 5.824 13.056 13.056 0.064 7.232-5.824 13.056-12.992 13.056zM561.92 333.504h-83.712c-7.168 0-13.056-5.824-13.056-13.056s5.824-13.056 13.056-13.056h83.712c7.232 0 13.12 5.824 13.12 13.056-0.064 7.232-5.888 13.056-13.12 13.056zM701.376 333.504h-83.648c-7.232 0-13.12-5.824-13.12-13.056s5.888-13.056 13.12-13.056h83.648c7.168 0 13.056 5.824 13.056 13.056s-5.888 13.056-13.056 13.056zM283.008 472.96h-55.808c-22.592 0-40.96-18.368-40.96-40.96v-27.904c0-22.592 18.368-40.96 40.96-40.96h55.808c22.528 0 40.896 18.368 40.896 40.96v27.904c0.064 22.592-18.368 40.96-40.896 40.96zM297.792 404.096c0-8.192-6.656-14.784-14.784-14.784h-55.808c-8.128 0-14.784 6.656-14.784 14.784v27.904c0 8.192 6.656 14.784 14.784 14.784h55.808c8.128 0 14.784-6.656 14.784-14.784v-27.904zM659.52 514.816c-12.736 0-24.64-3.456-34.88-9.472-10.176 6.016-22.144 9.472-34.816 9.472-37.952 0-68.864-30.848-68.864-68.864 0-37.952 30.912-68.864 68.864-68.864 12.672 0 24.64 3.52 34.816 9.536 10.24-6.016 22.144-9.536 34.88-9.536 37.952 0 68.8 30.912 68.8 68.864 0 38.016-30.848 68.864-68.8 68.864zM603.776 405.632c-4.352-1.536-9.088-2.368-13.952-2.368-23.552 0-42.752 19.136-42.752 42.688s19.2 42.688 42.752 42.688c4.864 0 9.6-0.832 13.952-2.304-8.192-11.392-13.12-25.28-13.12-40.384 0-15.040 4.928-28.992 13.12-40.32zM624.64 421.312c-4.928 7.040-7.872 15.488-7.872 24.64 0 9.216 2.944 17.664 7.872 24.576 4.928-6.912 7.872-15.424 7.872-24.576s-2.944-17.6-7.872-24.64zM659.52 403.264c-4.928 0-9.6 0.832-14.016 2.368 8.256 11.328 13.12 25.28 13.12 40.32 0 15.104-4.864 28.992-13.12 40.384 4.416 1.472 9.088 2.304 14.016 2.304 23.552 0 42.688-19.2 42.688-42.688s-19.136-42.688-42.688-42.688z" />
<glyph unicode="&#xe919;" glyph-name="icon_wallet-trans" d="M230.144 798.348c-9.024-0.832-15.872-8.384-15.808-17.408v-87.232h-52.288c-0.512 0.064-1.088 0.064-1.6 0-8.96-0.832-15.872-8.384-15.808-17.408v-152.256h-17.472c-0.512 0-1.088 0-1.6 0-9.024-0.832-15.872-8.384-15.808-17.408v-139.52c0-9.6 7.808-17.408 17.408-17.408h17.472v-167.296c-2.496-7.872 0.768-16.32 7.936-20.48 0.128-0.128 0.32-0.32 0.512-0.512 0.256-0.064 0.576-0.192 0.832-0.256 0.512-0.32 1.088-0.576 1.664-0.832 0.128-0.064 0.32-0.128 0.512-0.256 0.384-0.064 0.768-0.192 1.152-0.256 0.256 0 0.512 0 0.832 0 0.256-0.064 0.576-0.192 0.832-0.256 0.256 0 0.512 0 0.832 0 2.048-0.384 4.16-0.384 6.272 0h460.096c9.6-0.128 17.536 7.552 17.664 17.216 0.128 9.6-7.552 17.536-17.216 17.664-0.128 0-0.32 0-0.448 0h-446.656v155.328h261.44c9.664 0 17.408 7.808 17.408 17.408v139.456c0 9.6-7.808 17.408-17.408 17.408h-261.44v134.848h620.8c9.344 0 18.176 2.176 26.176 6.016v-236.736c-0.128-9.6 7.552-17.536 17.152-17.664s17.536 7.552 17.664 17.216c0 0.128 0 0.32 0 0.512v300.48c0 0.576 0 1.088 0 1.6v7.104c0 33.472-27.52 61.056-60.992 61.056h-568.512c-0.512-0.064-1.088-0.064-1.6-0.128v0zM249.216 763.532h551.040c14.784 0 26.176-11.328 26.176-26.176v-7.36c0-0.448 0-0.896 0-1.344v-8.704c0-14.784-11.392-26.176-26.176-26.176h-551.040v69.76zM144.64 489.164h278.848v-104.576h-278.848v104.576zM371.2 480.46c-23.872 0-43.584-19.712-43.584-43.584s19.712-43.584 43.584-43.584c23.872 0 43.584 19.712 43.584 43.584s-19.712 43.584-43.584 43.584zM371.2 445.58c5.056 0 8.768-3.712 8.768-8.704s-3.712-8.704-8.768-8.704c-4.992 0-8.704 3.712-8.704 8.704 0 5.056 3.712 8.704 8.704 8.704zM755.904 394.124c-3.968-0.192-7.68-1.728-10.624-4.352l-69.696-60.992c-7.296-6.336-8.128-17.344-1.856-24.64 0.576-0.64 1.216-1.28 1.856-1.792l69.696-61.056c7.296-6.336 18.304-5.568 24.64 1.6 6.4 7.296 5.632 18.304-1.664 24.64 0 0.064-0.064 0.064-0.128 0.128l-34.56 30.208h127.744c9.6-0.128 17.536 7.552 17.664 17.216 0.128 9.6-7.552 17.536-17.152 17.664-0.192 0-0.32 0-0.512 0h-128l34.816 30.528c7.36 6.144 8.384 17.152 2.24 24.512-3.584 4.352-8.96 6.656-14.464 6.336v0zM807.616 254.668c-9.6-0.64-16.896-8.896-16.256-18.496 0.256-4.8 2.56-9.216 6.208-12.288l34.816-30.528h-128c-0.576 0-1.088 0-1.664 0-9.6-0.384-17.152-8.512-16.704-18.112 0.384-9.664 8.512-17.152 18.112-16.768 0.064 0 0.128 0 0.192 0h127.744l-34.56-30.272c-7.296-6.336-8.064-17.344-1.792-24.64 6.336-7.296 17.344-8.064 24.64-1.792l69.696 60.992c7.296 6.272 8.064 17.344 1.856 24.64-0.576 0.64-1.216 1.28-1.856 1.792l-69.696 60.992c-3.392 3.2-8.064 4.736-12.736 4.48v0z" />
<glyph unicode="&#xe91a;" glyph-name="icon_cardsmile" d="M890.112 170.176h-748.224c-26.88 0-50.24 23.296-50.24 50.24v471.872c0 26.88 23.36 50.24 50.24 50.24h748.16c28.736 0 50.304-23.36 50.304-50.24v-471.936c0-26.88-23.296-50.176-50.24-50.176zM141.888 706.688c-7.168 0-14.4-7.168-14.4-14.336v-471.936c0-7.168 7.232-14.4 14.4-14.4h748.16c7.232 0 14.4 7.168 14.4 14.4v471.872c0 7.168-7.168 14.336-14.4 14.336h-748.16zM376.96 439.296h-170.432c-10.752 0-17.984 7.168-17.984 17.92s7.232 17.984 17.984 17.984h170.432c10.752 0 17.92-7.232 17.92-17.984s-8.96-17.92-17.92-17.92zM454.144 354.944h-247.616c-10.752 0-17.984 7.168-17.984 17.984 0 10.688 7.232 17.92 17.984 17.92h247.616c10.752 0 17.92-7.232 17.92-17.92 0-10.752-7.168-17.984-17.92-17.984zM554.624 272.448h-348.096c-10.752 0-17.984 7.104-17.984 17.92s7.232 17.984 17.984 17.984h348.096c10.752 0 17.92-7.168 17.92-17.984s-7.168-17.92-17.92-17.92zM316.864 521.856h-98.688c-16.128 0-28.672 12.544-28.672 28.736v98.688c0 16.128 12.544 28.672 28.672 28.672h98.688c16.128 0 28.672-12.544 28.672-28.672v-98.688c-1.728-16.192-14.336-28.736-28.672-28.736zM225.344 557.76h82.624v82.496h-82.624v-82.496zM316.864 642.048v0 0zM514.24 272.448h-306.88c-10.752 0-17.92 7.168-17.92 17.92s7.168 17.92 17.92 17.92h306.88c10.752 0 17.92-7.168 17.92-17.92s-8.96-17.92-17.92-17.92zM548.288 439.296h-75.328c-10.752 0-17.984 7.168-17.984 17.984 0 10.752 7.232 17.984 17.984 17.984h75.328c10.752 0 17.984-7.232 17.984-17.984 0-10.816-7.168-17.984-17.984-17.984zM727.744 439.296h-75.392c-10.752 0-17.92 7.168-17.92 17.984 0 10.752 7.168 17.984 17.92 17.984h75.392c10.752 0 17.92-7.232 17.92-17.984 0-10.816-8.96-17.984-17.92-17.984z" />
<glyph unicode="&#xe91b;" glyph-name="icon_exchange" d="M647.232 883.328c-27.648-1.792-48.64-25.536-46.912-53.248 0.896-13.632 7.296-26.432 17.92-35.264l100.224-87.744h-536.064c-1.6 0.128-3.2 0.128-4.8 0-27.712-1.152-49.28-24.448-48.128-52.16 1.152-27.776 24.448-49.344 52.224-48.128 0.128 0 0.32 0 0.64 0h535.296l-99.392-86.912c-20.992-18.112-23.296-49.92-5.056-70.848 18.112-20.992 49.856-23.296 70.848-5.12l200.448 175.552c20.992 17.984 23.36 49.664 5.184 70.656-1.472 1.856-3.264 3.648-5.184 5.248l-200.448 175.488c-10.048 8.96-23.36 13.376-36.8 12.48v0zM384.128 16.064c27.648 1.792 48.64 25.536 46.912 53.312-0.896 13.632-7.296 26.432-17.92 35.2l-100.224 87.744h536.064c1.6-0.128 3.2-0.128 4.8 0 27.712 1.152 49.28 24.448 48.064 52.096-1.152 27.84-24.448 49.344-52.224 48.128-0.128 0-0.32 0-0.64 0h-535.296l99.456 86.976c20.992 18.112 23.296 49.856 5.056 70.848-18.112 20.992-49.856 23.296-70.784 5.12l-200.512-175.552c-20.992-17.92-23.36-49.536-5.184-70.528 1.472-1.856 3.264-3.648 5.184-5.248l200.512-175.488c9.984-9.024 23.296-13.504 36.736-12.608v0z" />
<glyph unicode="&#xe91c;" glyph-name="icon_request" d="M885.632 88.704c0-22.208-14.4-40.128-32.128-40.128h-680.128c-17.728 0-32.128 17.984-32.128 40.128v0c0 22.208 14.4 40.192 32.128 40.192h680.128c17.792 0 32.128-17.984 32.128-40.192v0zM747.008 485.76c-1.856 28.48-26.432 50.24-55.104 48.448-14.144-0.896-27.328-7.616-36.48-18.496l-90.752-103.68v380.672c0.128 1.6 0.128 3.264 0 4.864-1.152 28.672-25.28 50.944-53.888 49.792-28.736-1.216-50.944-25.344-49.792-54.016 0-0.192 0-0.384 0-0.64v-379.84l-89.92 102.848c-18.816 21.632-51.584 24-73.28 5.184-21.76-18.752-24.128-51.584-5.312-73.216l181.568-207.424c18.624-21.696 51.392-24.192 73.088-5.376 1.92 1.6 3.776 3.456 5.44 5.376l181.504 207.424c9.28 10.304 13.952 24.128 12.928 38.080v0z" />
<glyph unicode="&#xe91d;" glyph-name="icon_send" d="M353.536 690.752c-22.848-26.048-20.48-65.728 5.696-88.832 12.8-11.328 29.952-16.96 47.104-15.424l166.72 11.136-326.4-326.464c-1.472-1.28-2.944-2.688-4.224-4.16-23.552-25.6-21.952-65.344 3.648-88.96 25.664-23.616 65.408-21.952 89.024 3.648 0.192 0.192 0.32 0.32 0.576 0.576l325.696 325.696-11.072-165.312c-2.496-34.688 23.68-64.832 58.432-67.328 34.688-2.56 64.896 23.616 67.392 58.24l22.144 333.504c2.624 34.56-23.296 64.832-58.048 67.328-3.008 0.32-6.144 0.32-9.28 0l-333.44-22.144c-17.088-0.896-32.896-8.704-43.968-21.504v0z" />
<glyph unicode="&#xe91e;" glyph-name="icon_withdraw" d="M876.672 96.256c0-22.208-14.4-40.128-32.128-40.128h-680.128c-17.728 0-32.128 17.984-32.128 40.128v0c0 22.208 14.4 40.192 32.128 40.192h680.128c17.728 0 32.128-17.984 32.128-40.192v0zM270.912 591.424c1.856-28.544 26.432-50.304 55.104-48.448 14.144 0.896 27.328 7.552 36.48 18.496l90.752 103.744v-380.672c-0.128-1.664-0.128-3.328 0-4.928 1.216-28.672 25.344-50.88 53.952-49.728 28.736 1.216 50.944 25.344 49.792 54.016 0 0.192 0 0.384 0 0.704v379.712l89.92-102.848c18.752-21.632 51.584-24 73.28-5.184 21.696 18.752 24.064 51.584 5.312 73.28l-181.568 207.36c-18.624 21.632-51.392 24.128-73.152 5.376-1.92-1.6-3.776-3.392-5.44-5.376l-181.504-207.36c-9.28-10.432-13.888-24.192-12.928-38.144v0z" />
<glyph unicode="&#xea3a;" glyph-name="arrow-up2" d="M877.254 557.254l-320 320c-24.992 24.994-65.514 24.994-90.508 0l-320-320c-24.994-24.994-24.994-65.516 0-90.51 24.994-24.996 65.516-24.996 90.51 0l210.744 210.746v-613.49c0-35.346 28.654-64 64-64s64 28.654 64 64v613.49l210.746-210.746c12.496-12.496 28.876-18.744 45.254-18.744s32.758 6.248 45.254 18.746c24.994 24.994 24.994 65.514 0 90.508z" />
<glyph unicode="&#xea3c;" glyph-name="arrow-right2" d="M621.254 82.746l320 320c24.994 24.992 24.994 65.516 0 90.51l-320 320c-24.994 24.992-65.516 24.992-90.51 0-24.994-24.994-24.994-65.516 0-90.51l210.746-210.746h-613.49c-35.346 0-64-28.654-64-64s28.654-64 64-64h613.49l-210.746-210.746c-12.496-12.496-18.744-28.876-18.744-45.254s6.248-32.758 18.744-45.254c24.994-24.994 65.516-24.994 90.51 0z" />
<glyph unicode="&#xea40;" glyph-name="arrow-left2" d="M402.746 82.746l-320 320c-24.994 24.992-24.994 65.516 0 90.51l320 320c24.994 24.992 65.516 24.992 90.51 0 24.994-24.994 24.994-65.516 0-90.51l-210.746-210.746h613.49c35.346 0 64-28.654 64-64s-28.654-64-64-64h-613.49l210.746-210.746c12.496-12.496 18.744-28.876 18.744-45.254s-6.248-32.758-18.744-45.254c-24.994-24.994-65.516-24.994-90.51 0z" />
</font>
</defs>
</svg>
